<?xml version="1.0" encoding="UTF-8" standalone="no"?>

<svg
   width="210mm"
   height="297mm"
   viewBox="0 0 210 297"
   version="1.1"
   id="svg1"
   inkscape:version="1.3 (0e150ed6c4, 2023-07-21)"
   sodipodi:docname="drawing.svg"
   xmlns:inkscape="http://www.inkscape.org/namespaces/inkscape"
   xmlns:sodipodi="http://sodipodi.sourceforge.net/DTD/sodipodi-0.dtd"
   xmlns="http://www.w3.org/2000/svg"
   xmlns:svg="http://www.w3.org/2000/svg">
  <sodipodi:namedview
     id="namedview1"
     pagecolor="#ffffff"
     bordercolor="#000000"
     borderopacity="0.25"
     inkscape:showpageshadow="2"
     inkscape:pageopacity="0.0"
     inkscape:pagecheckerboard="0"
     inkscape:deskcolor="#d1d1d1"
     inkscape:document-units="mm"
     inkscape:zoom="0.52724989"
     inkscape:cx="566.14521"
     inkscape:cy="308.20301"
     inkscape:window-width="1920"
     inkscape:window-height="1051"
     inkscape:window-x="-9"
     inkscape:window-y="-9"
     inkscape:window-maximized="1"
     inkscape:current-layer="layer1" />
  <defs
     id="defs1">
    <clipPath
       clipPathUnits="userSpaceOnUse"
       id="clipPath4">
      <path
         d="M 0,2500 H 2500 V 0 H 0 Z"
         transform="translate(-914.3494,-1214.2109)"
         id="path4" />
    </clipPath>
    <clipPath
       clipPathUnits="userSpaceOnUse"
       id="clipPath6">
      <path
         d="M 0,2500 H 2500 V 0 H 0 Z"
         transform="translate(-885.38282,-1255.0207)"
         id="path6" />
    </clipPath>
    <clipPath
       clipPathUnits="userSpaceOnUse"
       id="clipPath10">
      <path
         d="M 0,2500 H 2500 V 0 H 0 Z"
         transform="translate(-955.19335,-906.1328)"
         id="path10" />
    </clipPath>
    <clipPath
       clipPathUnits="userSpaceOnUse"
       id="clipPath12">
      <path
         d="M 0,2500 H 2500 V 0 H 0 Z"
         transform="translate(-918.5347,-957.7793)"
         id="path12" />
    </clipPath>
    <clipPath
       clipPathUnits="userSpaceOnUse"
       id="clipPath16">
      <path
         d="M 0,2500 H 2500 V 0 H 0 Z"
         transform="translate(-985.5826,-2018.5837)"
         id="path16" />
    </clipPath>
    <clipPath
       clipPathUnits="userSpaceOnUse"
       id="clipPath18">
      <path
         d="M 0,2500 H 2500 V 0 H 0 Z"
         transform="translate(-939.24602,-2083.865)"
         id="path18" />
    </clipPath>
  </defs>
  <g
     inkscape:label="Layer 1"
     inkscape:groupmode="layer"
     id="layer1">
    <g
       id="g12"
       aria-label="PixKraft"
       transform="matrix(0.26293976,0,0,0.26293976,3.6532,120.65268)">
      <path
         id="path13"
         d="m 17.436556,-146.33102 h 65.835938 c 13.013672,0 23.507816,3.67383 31.476566,11.01563 7.96875,7.33594 11.95312,17.64551 11.95312,30.92578 0,11.422852 -3.55664,21.369141 -10.66406,29.835938 -7.10156,8.460938 -18.023439,12.691406 -32.765626,12.691406 H 37.252963 V 0.00101563 H 17.436556 Z m 89.250004,42.03516 c 0,-10.75781 -3.98438,-18.06152 -11.953129,-21.91406 -4.382812,-2.05371 -10.394531,-3.08203 -18.035156,-3.08203 H 37.252963 v 50.695309 h 39.445312 c 8.897461,0 16.119141,-1.889648 21.667969,-5.671875 5.545896,-3.788086 8.320316,-10.464843 8.320316,-20.027344 z m 42.52734,-1.88672 h 18.23438 V 0.00101563 H 149.2139 Z m 0,-40.14844 h 18.23438 v 20.32032 H 149.2139 Z m 35.12402,39.64454 h 23.21485 l 24.5039,37.558589 24.79688,-37.558589 21.82031,0.5039 -35.96484,51.492189 37.55859,54.69140663 H 257.35745 L 230.86136,-40.041953 205.16214,0.00101563 H 182.4512 L 219.99808,-54.690391 Z m 0,0"
         style="fill:#231f20 icc-color(sRGB-IEC61966-2, 0.1, 0.13699341, 0.12199402, 0.125);fill-opacity:1;fill-rule:nonzero;stroke:none" />
      <path
         id="path14"
         d="M 428.97562,0.00101563 H 389.53031 L 344.2139,-64.147422 329.56546,-49.112266 V 0.00101563 H 299.38968 V -146.8232 h 30.17578 v 60.457028 l 56.6836,-60.457028 h 39.64453 l -60.16406,60.457028 z M 498.47074,-82.381797 c -11.42286,0 -19.09571,3.720703 -23.01563,11.15625 -2.18848,4.189453 -3.28125,10.628906 -3.28125,19.324219 V 0.00101563 H 443.58011 V -108.5732 h 27.09375 v 18.925778 c 4.38281,-7.242187 8.20313,-12.190428 11.46094,-14.847658 5.31152,-4.44433 12.2168,-6.66797 20.71875,-6.66797 0.53027,0 0.97558,0.0176 1.33594,0.0469 0.36621,0.0322 1.18359,0.082 2.44921,0.15234 v 29.085939 c -1.79882,-0.202148 -3.3955,-0.333984 -4.79296,-0.398437 -1.39161,-0.07031 -2.51661,-0.105469 -3.375,-0.105469 z m 28.8457,-14.4375 c 7.50586,-9.562503 20.39062,-14.343753 38.64844,-14.343753 11.88867,0 22.44726,2.35547 31.67578,7.06641 9.23437,4.719726 13.85156,13.617187 13.85156,26.695312 v 49.804687 c 0,3.454102 0.0645,7.637696 0.19922,12.550782 0.19336,3.720703 0.75586,6.2431637 1.6875,7.5703121 0.92871,1.3300782 2.32324,2.4257813 4.18359,3.2929688 v 4.18359373 h -30.8789 c -0.86133,-2.19433593 -1.45899,-4.25390623 -1.79297,-6.17578123 -0.32813,-1.9277344 -0.59473,-4.1191404 -0.79688,-6.5742184 -3.91406,4.2509762 -8.43164,7.8691403 -13.54687,10.8515621 -6.11133,3.5214844 -13.0166,5.2851563 -20.71875,5.2851563 -9.8291,0 -17.94727,-2.80664065 -24.35156,-8.4140625 -6.40723,-5.6162109 -9.60938,-13.5703129 -9.60938,-23.8593749 0,-13.350586 5.14453,-23.015625 15.43359,-28.992188 5.64844,-3.249023 13.94825,-5.572265 24.90235,-6.972656 l 9.66797,-1.195312 c 5.24121,-0.66211 8.99121,-1.491211 11.25,-2.484375 4.05468,-1.725586 6.08203,-4.417969 6.08203,-8.074219 0,-4.444336 -1.54688,-7.514649 -4.64063,-9.210938 -3.08789,-1.693359 -7.61718,-2.542968 -13.59375,-2.542968 -6.70312,0 -11.44922,1.661132 -14.23828,4.980468 -1.99219,2.460938 -3.32226,5.783204 -3.98437,9.960938 h -27.39844 c 0.60059,-9.492188 3.25781,-17.291016 7.96875,-23.402344 z m 21.11719,76.300781 c 2.65429,2.188477 5.90918,3.28125 9.76172,3.28125 6.10839,0 11.73632,-1.792968 16.88671,-5.378906 5.14747,-3.585937 7.81934,-10.125 8.01563,-19.617187 v -10.558594 c -1.79004,1.125 -3.59766,2.039062 -5.42578,2.742187 -1.82813,0.697266 -4.33594,1.341797 -7.52344,1.933594 l -6.375,1.195313 c -5.97656,1.063476 -10.25977,2.361328 -12.84375,3.890625 -4.38281,2.586914 -6.57422,6.603515 -6.57422,12.046875 0,4.851562 1.35938,8.34082 4.07813,10.464843 z M 687.5557,-147.72555 v 23.10938 c -1.59375,-0.19336 -4.26563,-0.34278 -8.01563,-0.44531 -3.75,-0.0996 -6.33984,0.73242 -7.76953,2.49609 -1.42969,1.75781 -2.14453,3.70019 -2.14453,5.82422 v 9.16406 h 18.63281 v 20.015626 H 669.62601 V 0.00101563 H 641.33695 V -87.561484 h -15.83203 v -20.015626 h 15.53906 v -6.97266 c 0,-11.625 1.95703,-19.6289 5.87109,-24.01171 4.11621,-6.50684 14.04492,-9.76172 29.78906,-9.76172 1.78711,0 3.41309,0.0527 4.875,0.15234 1.45899,0.10254 3.45118,0.25195 5.97657,0.44531 z m 66.73242,127.500003 V 0.99710938 L 740.84671,1.5010156 c -13.41504,0.459961 -22.5791,-1.86621091 -27.49218,-6.984375 -3.1875,-3.2490234 -4.78125,-8.2617186 -4.78125,-15.0351566 v -66.84375 h -15.14063 v -20.214844 h 15.14063 v -30.28125 h 28.08984 v 30.28125 h 17.625 v 20.214844 h -17.625 v 57.375 c 0,4.453125 0.5625,7.227539 1.6875,8.320313 1.13086,1.095703 4.58496,1.640625 10.35937,1.640625 0.86719,0 1.78125,-0.01465 2.74219,-0.04687 0.96094,-0.0293 1.9043,-0.08203 2.83594,-0.152344 z m 0,0"
         style="fill:#231f20 icc-color(sRGB-IEC61966-2, 0.1, 0.13699341, 0.12199402, 0.125);fill-opacity:1;fill-rule:nonzero;stroke:none" />
    </g>
    <path
       id="path15"
       d="m 0,0 c -31.3,-36.806 -76.832,-35.821 -81.728,-35.631 -4.951,0.191 -45.049,2.391 -73.426,35.267 -10.994,12.738 -16.499,25.759 -19.323,34.295 8.136,9.763 16.272,19.526 24.408,29.289 2.481,-4.972 6.249,-11.785 11.671,-19.313 5.738,-7.967 11.971,-16.824 22.401,-24.155 6.896,-4.848 19.678,-13.627 38.143,-13.627 20.589,0 34.692,10.748 38.232,13.626 2.279,1.852 22.155,18.536 22.575,44.689 0.54,33.633 -31.42,62.795 -60.807,62.826 -10.994,0.011 -26.066,-4.024 -37.963,-13.487 -0.905,-0.72 -4.232,-3.787 -8.255,-8.016 -31.445,-38.107 -62.89,-76.215 -94.335,-114.322 -9.213,11.371 -18.425,22.743 -27.638,34.115 30.247,36.186 60.493,72.373 90.74,108.559 6.114,6.262 17.108,15.948 33.447,22.94 6.378,2.729 22.759,8.962 44.004,8.315 C -30.973,163.942 -1.948,130.28 0.038,127.9 5.349,121.536 22.987,99.75 23.904,66.695 24.888,31.262 5.988,7.041 0,0 m -176.917,119.357 c -8.136,-9.763 -16.272,-19.526 -24.408,-29.289 -3.254,11.39 -6.509,22.781 -9.763,34.171 9.763,2.441 19.526,4.881 29.289,7.322 1.627,-4.068 3.254,-8.136 4.882,-12.204"
       style="fill:#0671ff icc-color(sRGB-IEC61966-2, 0.1, 0.02398682, 0.44299316, 1);fill-opacity:1;fill-rule:nonzero;stroke:none"
       transform="matrix(0.26293976,0,0,-0.26293976,118.29073,59.289488)"
       clip-path="url(#clipPath16)" />
    <path
       id="path17"
       d="m 0,0 c 0,-16.176 -13.113,-29.289 -29.289,-29.289 -16.176,0 -29.289,13.113 -29.289,29.289 0,16.176 13.113,29.289 29.289,29.289 C -13.113,29.289 0,16.176 0,0"
       style="fill:#0671ff icc-color(sRGB-IEC61966-2, 0.1, 0.02398682, 0.44299316, 1);fill-opacity:1;fill-rule:nonzero;stroke:none"
       transform="matrix(0.26293976,0,0,-0.26293976,106.107,42.124412)"
       clip-path="url(#clipPath18)" />
  </g>
</svg>
